# AST/ASF file generated using VICON BodyLanguage
# -----------------------------------------------
:version 1.10
:name VICON
:units
  mass 1.0
  length 0.45
  angle deg
:documentation
   .ast/.asf automatically generated from VICON data using
   VICON BodyBuilder and BodyLanguage model FoxedUp or BRILLIANT.MOD
:root
   order TX TY TZ RX RY RZ
   axis XYZ
   position 0 0 0  
   orientation 0 0 0 
:bonedata
  begin
     id 1 
     name lhipjoint
     direction 0.627457 -0.725269 0.283342 
     length 2.53237 
     axis 0 0 0  XYZ
  end
  begin
     id 2 
     name lfemur
     direction 0.34202 -0.939693 0  
     length 7.32496  
     axis 0 0 20  XYZ
    dof rx ry rz
    limits (-160.0 20.0)
           (-70.0 70.0)
           (-60.0 70.0)
  end
  begin
     id 3 
     name ltibia
     direction 0.34202 -0.939693 0   
     length 7.69674   
     axis 0 0 20   XYZ
    dof rx
    limits (-10.0 170.0)
  end
  begin
     id 4 
     name lfoot
     direction 0.127289 -0.349722 0.928166   
     length 1.8612   
     axis -90 7.62852e-016 20   XYZ
    dof rx rz
    limits (-45.0 90.0)
           (-70.0 20.0)
  end
  begin
     id 5 
     name ltoes
     direction 1.53561e-011 -4.21864e-011 1   
     length 0.925608   
     axis -90 7.62852e-016 20   XYZ
    dof rx
    limits (-90.0 20.0)
  end
  begin
     id 6 
     name rhipjoint
     direction -0.609094 -0.738725 0.288599   
     length 2.48624  
     axis 0 0 0  XYZ 
  end
  begin
     id 7 
     name rfemur
     direction -0.34202 -0.939693 0   
     length 7.44259   
     axis 0 0 -20   XYZ
    dof rx ry rz
    limits (-160.0 20.0)
           (-70.0 70.0)
           (-70.0 60.0)
  end
  begin
     id 8 
     name rtibia
     direction -0.34202 -0.939693 0   
     length 7.7781   
     axis 0 0 -20   XYZ
    dof rx
    limits (-10.0 170.0)
 end
 begin
     id 9 
     name rfoot
     direction -0.107015 -0.294021 0.949789   
     length 2.14741  
     axis -90 -7.62852e-016 -20   XYZ
    dof rx rz
    limits (-45.0 90.0)
           (-20.0 70.0)
  end
  begin
     id 10 
     name rtoes
     direction -1.53497e-011 -4.21924e-011 1   
     length 1.0706   
     axis -90 -7.62852e-016 -20   XYZ
    dof rx
    limits (-90.0 20.0)
  end
  begin
     id 11 
     name lowerback
     direction -0.0142066 0.998112 -0.0597545   
     length 1.86627   
     axis 0 0 0   XYZ
    dof rx ry rz
    limits (-20.0 45.0)
           (-30.0 30.0)
           (-30.0 30.0)
  end
  begin
     id 12 
     name upperback
     direction 0.00547294 0.999744 0.0219437   
     length 1.86272   
     axis 0 0 0   XYZ
    dof rx ry rz
    limits (-20.0 45.0)
           (-30.0 30.0)
           (-30.0 30.0)
  end
  begin
     id 13 
     name thorax
     direction 0.0116162 0.998704 0.0495538   
     length 1.8703   
     axis 0 0 0   XYZ
    dof rx ry rz
    limits (-20.0 45.0)
           (-30.0 30.0)
           (-30.0 30.0)
  end
  begin
     id 14 
     name lowerneck
     direction -0.0106574 0.998739 0.0490586   
     length 1.8074   
     axis 0 0 0   XYZ
    dof rx ry rz
    limits (-20.0 45.0)
           (-30.0 30.0)
           (-30.0 30.0)
  end
  begin
     id 15 
     name upperneck
     direction 0.030527 0.976587 -0.212944   
     length 1.80681   
     axis 0 0 0   XYZ
    dof rx ry rz
    limits (-20.0 45.0)
           (-30.0 30.0)
           (-30.0 30.0)
  end
  begin
     id 16
     name head
     direction 0.00869225 0.997035 -0.0764531  
     length 1.8313  
     axis 0 0 0   XYZ
    dof rx ry rz
    limits (-20.0 45.0)
           (-30.0 30.0)
           (-30.0 30.0)
  end
  begin
     id 17 
     name lclavicle
     direction 0.915958 0.399447 0.0382386  
     length 3.78965  
     axis 0 0 0   XYZ
    dof ry rz
    limits (-20.0 10.0)
           (0.0 20.0)
  end
  begin
     id 18 
     name lhumerus
     direction 1 -4.48967e-011 3.19303e-027   
     length 4.78095   
     axis -180 -30 -90   XYZ
    dof rx ry rz
    limits (-60.0 90.0)
           (-90.0 90.0)
           (-90.0 90.0)
  end
  begin
     id 19
     name lradius
     direction 1 -4.48967e-011 -3.77974e-027   
     length 3.58615   
     axis -180 -30 -90   XYZ
    dof rx
    limits (-10.0 170.0)
  end
  begin
     id 20
     name lwrist
     direction 1 -4.48927e-011 1.2807e-027   
     length 1.79307   
     axis 1.91374e-015 90 90   XYZ
    dof ry
    limits (-180.0 0.0)
 end
  begin
     id 21 
     name lhand
     direction 1 -4.49036e-011 2.5614e-027   
     length 0.659812   
     axis -1.63439e-015 90 90   XYZ
    dof rx rz
    limits (-90.0 90.0)
           (-45.0 45.0)
  end
  begin
     id 22 
     name lfingers
     direction 1 -4.49052e-011 5.1228e-027   
     length 0.531957   
     axis -3.26879e-015 90 90   XYZ
    dof rx
    limits (0.0 90.0)
  end
  begin
     id 23
     name lthumb
     direction 0.707107 -6.35012e-011 0.707107   
     length 0.763787   
     axis -90 45 2.85299e-015   XYZ
    dof rx rz
    limits (-45.0 45.0)
           (-45.0 45.0)
  end
  begin
     id 24 
     name rclavicle
     direction -0.895351 0.435135 0.0948887   
     length 3.70497  
     axis 0 0 0   XYZ 
    dof ry rz
    limits (-10.0 20.0)
           (-20.0 0.0)
  end
  begin
     id 25 
     name rhumerus
     direction -1 -4.48971e-011 2.38946e-027  
     length 4.48913   
     axis -180 30 90   XYZ
    dof rx ry rz
    limits (-90.0 60.0)
           (-90.0 90.0)
           (-90.0 90.0)
  end
  begin
     id 26 
     name rradius
     direction -1 -4.4895e-011 4.38668e-027   
     length 3.7051   
     axis -180 30 90   XYZ
    dof rx
    limits (-10.0 170.0)
  end
  begin
     id 27 
     name rwrist
     direction -1 -4.49007e-011 1.2807e-027   
     length 1.85255   
     axis 1.91374e-015 -90 -90   XYZ
    dof ry
    limits (-180.0 0.0)
  end
  begin
     id 28
     name rhand
     direction -1 -4.48851e-011 2.5614e-027   
     length 0.449136   
     axis -1.63439e-015 -90 -90   XYZ
    dof rx rz
    limits (-90.0 90.0)
           (-45.0 45.0)
  end
  begin
     id 29
     name rfingers
     direction -1 -4.49128e-011 5.1228e-027   
     length 0.362105   
     axis -3.26879e-015 -90 -90   XYZ
    dof rx
    limits (0.0 90.0)
  end
  begin
     id 30
     name rthumb
     direction -0.707107 -6.34851e-011 0.707107   
     length 0.519912   
     axis -90 -45 -2.85299e-015   XYZ
    dof rx rz
    limits (-45.0 45.0)
           (-45.0 45.0)
  end
:hierarchy
  begin
    root lhipjoint rhipjoint lowerback
    lhipjoint lfemur
    lfemur ltibia
    ltibia lfoot
    lfoot ltoes
    rhipjoint rfemur
    rfemur rtibia
    rtibia rfoot
    rfoot rtoes
    lowerback upperback
    upperback thorax
    thorax lowerneck lclavicle rclavicle
    lowerneck upperneck
    upperneck head
    lclavicle lhumerus
    lhumerus lradius
    lradius lwrist
    lwrist lhand lthumb
    lhand lfingers
    rclavicle rhumerus
    rhumerus rradius
    rradius rwrist
    rwrist rhand rthumb
    rhand rfingers
  end

#!OML:ASF I:\Actors\actors\Patient Classification 2\Patient 1\Session 1\actor1.ASF
:FULLY-SPECIFIED
:DEGREES
1
root -0.681684 18.7024 5.75863 3.77375 -3.9478 -2.71952
lowerback -2.26555 1.14148 0.723544
upperback -2.17203 1.51237 0.209403
thorax -0.941985 0.748568 -0.169619
lowerneck -11.0645 -1.77882 -0.665439
upperneck 23.9092 -3.32251 3.80763
head 9.42793 -1.20179 1.04764
rclavicle 6.05051e-015 -1.59028e-015
rhumerus -45.3026 3.4016 -91.654
rradius 39.4802
rwrist 16.5361
rhand -7.74047 -32.8475
rfingers 7.12502
rthumb 18.1585 -62.0199
lclavicle 6.05051e-015 -1.59028e-015
lhumerus -41.5109 -6.04289 94.0394
lradius 36.2919
lwrist -3.86253
lhand -7.50684 -25.5342
lfingers 7.12502
lthumb 18.3833 3.61718
rfemur 0 0 0
rtibia 0
rfoot 0 0
rtoes 0
lfemur -5.16669 -7.97281 -11.7482
ltibia 21.4472
lfoot -26.8119 17.8053
ltoes -53.8237
2
root -0.682505 18.7029 5.75831 3.77159 -3.93905 -2.75441
lowerback -2.28811 1.16207 0.768454
upperback -2.17435 1.53896 0.207818
thorax -0.930333 0.761325 -0.195498
lowerneck -11.0701 -1.78874 -0.61884
upperneck 23.9252 -3.33605 3.764
head 9.43344 -1.20825 1.02317
rclavicle 3.27373e-015 5.1684e-015
rhumerus -45.343 3.29298 -91.6243
rradius 39.5271
rwrist 16.5731
rhand -7.71742 -32.8809
rfingers 7.12502
rthumb 18.1807 -62.0512
lclavicle 3.27373e-015 5.1684e-015
lhumerus -41.5208 -6.09498 94.0625
lradius 36.3889
lwrist -4.07937
lhand -7.39662 -25.0846
lfingers 7.12502
lthumb 18.4893 4.05671
rfemur 0 0 0
rtibia 0
rfoot 0 0
rtoes 0
lfemur -5.17067 -8.01268 -11.7073
ltibia 21.4602
lfoot -26.8246 17.8152
ltoes -53.7663
3
root -0.683201 18.7027 5.75795 3.77799 -3.93744 -2.76108
lowerback -2.3286 1.17493 0.782472
upperback -2.18304 1.55546 0.198295
thorax -0.915816 0.76936 -0.212033
lowerneck -11.0177 -1.77575 -0.552991
upperneck 23.8936 -3.32065 3.72728
head 9.41031 -1.20025 1.0014
rclavicle 1.18401e-014 -7.95139e-015
rhumerus -45.388 3.2377 -91.6183
rradius 39.5563
rwrist 16.5854
rhand -7.70904 -32.8729
rfingers 7.12502
rthumb 18.1888 -62.0424
lclavicle 1.18401e-014 -7.95139e-015
lhumerus -41.536 -6.14146 94.0852
lradius 36.5972
lwrist -4.53806
lhand -7.19932 -24.1483
lfingers 7.12502
lthumb 18.6791 4.97489
rfemur 0 0 0
rtibia 0
rfoot 0 0
rtoes 0
lfemur -5.18082 -8.02879 -11.6951
ltibia 21.467
lfoot -26.8392 17.795
ltoes -53.7146
4
root -0.683714 18.7021 5.75726 3.77058 -3.95258 -2.77468
lowerback -2.35379 1.18283 0.801857
upperback -2.18928 1.56546 0.197083
thorax -0.907491 0.774118 -0.22347
lowerneck -10.9406 -1.76011 -0.533667
upperneck 23.856 -3.3022 3.7345
head 9.38183 -1.19068 1.00317
rclavicle 2.19906e-015 1.98785e-015
rhumerus -45.4175 3.2341 -91.6278
rradius 39.5632
rwrist 16.5741
rhand -7.67789 -32.9335
rfingers 7.12502
rthumb 18.2187 -62.1003
lclavicle 2.19906e-015 1.98785e-015
lhumerus -41.5737 -6.15084 94.0975
lradius 36.7253
lwrist -4.78007
lhand -7.06977 -23.6068
lfingers 7.12502
lthumb 18.8037 5.50439
rfemur 0 0 0
rtibia 0
rfoot 0 0
rtoes 0
lfemur -5.17353 -7.98228 -11.6759
ltibia 21.4754
lfoot -26.8254 17.737
ltoes -53.6663
5
root -0.684013 18.7019 5.75668 3.76976 -3.9683 -2.78492
lowerback -2.39373 1.19211 0.815535
upperback -2.18522 1.57719 0.207384
thorax -0.880805 0.779995 -0.219422
lowerneck -10.8727 -1.76428 -0.572767
upperneck 23.8118 -3.30206 3.75366
head 9.35434 -1.19357 1.01678
rclavicle -1.74309e-014 1.07344e-014
rhumerus -45.4177 3.25471 -91.6191
rradius 39.5569
rwrist 16.5565
rhand -7.69836 -32.984
rfingers 7.12502
rthumb 18.1991 -62.1526
lclavicle -1.74309e-014 1.07344e-014
lhumerus -41.6156 -6.17153 94.1312
lradius 36.7791
lwrist -4.78202
lhand -7.01311 -23.5724
lfingers 7.12502
lthumb 18.8582 5.5334
rfemur 0 0 0
rtibia 0
rfoot 0 0
rtoes 0
lfemur -5.16918 -7.96725 -11.6661
ltibia 21.4763
lfoot -26.8284 17.7497
ltoes -53.6642
6
root -0.684373 18.702 5.75577 3.76811 -3.97532 -2.76924
lowerback -2.4088 1.19546 0.798391
upperback -2.18332 1.58175 0.209814
thorax -0.870907 0.782549 -0.206898
lowerneck -10.8392 -1.76489 -0.579676
upperneck 23.7819 -3.2977 3.74491
head 9.3373 -1.19397 1.01557
rclavicle 1.49585e-014 -7.95139e-016
rhumerus -45.3896 3.28583 -91.6202
rradius 39.5293
rwrist 16.532
rhand -7.73861 -32.9626
rfingers 7.12502
rthumb 18.1603 -62.1348
lclavicle 1.49585e-014 -7.95139e-016
lhumerus -41.6419 -6.17874 94.1519
lradius 36.8161
lwrist -4.82655
lhand -6.981 -23.6599
lfingers 7.12502
lthumb 18.8891 5.44296
rfemur 0 0 0
rtibia 0
rfoot 0 0
rtoes 0
lfemur -5.16417 -8.01893 -11.6916
ltibia 21.4692
lfoot -26.8796 17.8396
ltoes -53.7351
7
root -0.684677 18.7019 5.75473 3.7451 -3.97695 -2.74321
lowerback -2.39541 1.18313 0.772798
upperback -2.17732 1.56578 0.204764
thorax -0.872919 0.774848 -0.19824
lowerneck -10.822 -1.7493 -0.579447
upperneck 23.7472 -3.27698 3.75599
head 9.32153 -1.18386 1.02166
rclavicle 1.0958e-014 1.23246e-014
rhumerus -45.3753 3.34244 -91.6483
rradius 39.5258
rwrist 16.5065
rhand -7.69234 -32.9559
rfingers 7.12502
rthumb 18.2048 -62.1239
lclavicle 1.0958e-014 1.23246e-014
lhumerus -41.6587 -6.12196 94.1315
lradius 36.8483
lwrist -4.89153
lhand -6.95412 -23.738
lfingers 7.12502
lthumb 18.9149 5.36235
rfemur 0 0 0
rtibia 0
rfoot 0 0
rtoes 0
lfemur -5.13475 -8.03554 -11.7247
ltibia 21.4531
lfoot -26.9009 17.8586
ltoes -53.768
8
root -0.684905 18.7019 5.75408 3.73994 -3.97731 -2.73978
lowerback -2.4216 1.16288 0.763946
upperback -2.16247 1.53864 0.223996
thorax -0.844041 0.761646 -0.173273
lowerneck -10.8143 -1.73788 -0.634584
upperneck 23.6954 -3.24698 3.75528
head 9.30192 -1.17575 1.03397
rclavicle 2.34814e-015 -1.31198e-014
rhumerus -45.3854 3.44717 -91.6598
rradius 39.5669
rwrist 16.4815
rhand -7.64328 -33.0151
rfingers 7.12502
rthumb 18.252 -62.1788
lclavicle 2.34814e-015 -1.31198e-014
lhumerus -41.6449 -6.01769 94.1229
lradius 36.8752
lwrist -4.91134
lhand -6.93739 -23.7197
lfingers 7.12502
lthumb 18.931 5.3791
rfemur 0 0 0
rtibia 0
rfoot 0 0
rtoes 0
lfemur -5.11935 -8.06274 -11.7281
ltibia 21.4369
lfoot -26.924 17.8258
ltoes -53.7192
9
root -0.685225 18.7021 5.75295 3.73895 -3.98869 -2.74777
lowerback -2.44435 1.1563 0.767905
upperback -2.16159 1.52963 0.243942
thorax -0.830933 0.757277 -0.154714
lowerneck -10.7959 -1.74366 -0.662019
upperneck 23.6709 -3.23814 3.7141
head 9.28918 -1.17912 1.02549
rclavicle -1.12375e-014 5.1684e-015
rhumerus -45.4065 3.49304 -91.6505
rradius 39.5888
rwrist 16.4771
rhand -7.66794 -33.0836
rfingers 7.12502
rthumb 18.2283 -62.2495
lclavicle -1.12375e-014 5.1684e-015
lhumerus -41.6497 -5.95664 94.1374
lradius 36.8832
lwrist -4.84689
lhand -6.96106 -23.6949
lfingers 7.12502
lthumb 18.9083 5.40603
rfemur 0 0 0
rtibia 0
rfoot 0 0
rtoes 0
lfemur -5.11277 -8.13094 -11.7261
ltibia 21.4299
lfoot -26.9681 17.865
ltoes -53.6717
10
root -0.685037 18.7016 5.75105 3.70237 -4.00346 -2.76136
lowerback -2.42408 1.17031 0.805935
upperback -2.16209 1.54787 0.230727
thorax -0.841283 0.765804 -0.189654
lowerneck -10.7393 -1.7574 -0.632614
upperneck 23.6434 -3.26264 3.71629
head 9.26912 -1.18886 1.01884
rclavicle 2.78299e-015 -5.1684e-015
rhumerus -45.425 3.35262 -91.6304
rradius 39.5872
rwrist 16.555
rhand -7.61839 -33.1502
rfingers 7.12502
rthumb 18.276 -62.3116
lclavicle 2.78299e-015 -5.1684e-015
lhumerus -41.6962 -6.03622 94.1611
lradius 36.9041
lwrist -4.70677
lhand -6.98155 -23.6747
lfingers 7.12502
lthumb 18.8886 5.42818
rfemur 0 0 0
rtibia 0
rfoot 0 0
rtoes 0
lfemur -5.0771 -8.14349 -11.7238
ltibia 21.4293
lfoot -26.9506 17.9459
ltoes -53.7201
11
root -0.684319 18.701 5.74975 3.6494 -4.01671 -2.78507
lowerback -2.39087 1.18363 0.864675
upperback -2.14905 1.56495 0.219795
thorax -0.844494 0.773572 -0.233979
lowerneck -10.7477 -1.7597 -0.629089
upperneck 23.6704 -3.27519 3.74625
head 9.28105 -1.19068 1.02717
rclavicle -1.32937e-015 -4.77083e-015
rhumerus -45.4421 3.18671 -91.6057
rradius 39.5911
rwrist 16.6486
rhand -7.5594 -33.2599
rfingers 7.12502
rthumb 18.3327 -62.416
lclavicle -1.32937e-015 -4.77083e-015
lhumerus -41.7181 -6.06914 94.1604
lradius 36.9178
lwrist -4.66566
lhand -6.94014 -23.6562
lfingers 7.12502
lthumb 18.9284 5.44277
rfemur 0 0 0
rtibia 0
rfoot 0 0
rtoes 0
lfemur -5.01873 -8.13959 -11.7099
ltibia 21.4323
lfoot -26.9595 17.9751
ltoes -53.7572
